<svg width="210" height="12" viewBox="0 0 210 12" fill="none" xmlns="http://www.w3.org/2000/svg">
<path d="M7.78926 9.90329H3.33499L2.59098 11.8351H0L4.58806 0.283386H6.56882L11.1732 11.8351H8.51696L7.78926 9.90329ZM6.97999 7.80832L5.58007 4.11112L4.14426 7.80832H6.97999Z" fill="white"/>
<path d="M16.7334 0.283386V9.48234H22.0295V11.8253H14.2925V0.283386H16.7334Z" fill="white"/>
<path d="M32.856 0.283386V2.62962H28.2321V4.70828H32.36V7.05126H28.2321V9.48234H32.8691V11.8253H25.7781V0.283386H32.856Z" fill="white"/>
<path d="M43.467 11.8351L40.8564 7.42653H39.6033V11.8351H37.1625V0.283394H41.6135C42.5667 0.281481 43.4826 0.65374 44.1643 1.32012C44.8459 1.98649 45.2388 2.89376 45.2585 3.8468C45.2585 5.33156 44.5503 6.48673 43.4115 7.048L46.4332 11.8351H43.467ZM39.6066 5.30872H41.372C41.553 5.31767 41.734 5.28974 41.9039 5.22662C42.0738 5.1635 42.2292 5.06652 42.3604 4.94156C42.4917 4.81659 42.5963 4.66625 42.6677 4.49966C42.7391 4.33307 42.776 4.1537 42.776 3.97244C42.776 3.79118 42.7391 3.61181 42.6677 3.44522C42.5963 3.27863 42.4917 3.12828 42.3604 3.00332C42.2292 2.87835 42.0738 2.78137 41.9039 2.71825C41.734 2.65514 41.553 2.62721 41.372 2.63616H39.6066V5.30872Z" fill="white"/>
<path d="M57.7751 2.62963H54.3944V11.8351H51.9503V2.62963H48.5859V0.283386H57.7751V2.62963Z" fill="white"/>
<path d="M67.4634 0.283386V9.48234H72.7595V11.8253H65.0192V0.283386H67.4634Z" fill="white"/>
<path d="M87.0229 6.05727C87.042 6.84056 86.9022 7.6196 86.6119 8.34737C86.3216 9.07514 85.8869 9.73653 85.3339 10.2916C84.781 10.8467 84.1213 11.284 83.3946 11.5771C82.668 11.8702 81.8895 12.013 81.1061 11.9969C77.7414 11.9969 75.2318 9.43829 75.2318 6.05727C75.2318 2.67626 77.7577 0.114386 81.1061 0.114386C81.8897 0.098263 82.6685 0.24116 83.3954 0.534446C84.1223 0.827731 84.7821 1.26532 85.3351 1.82077C85.8882 2.37622 86.3228 3.03801 86.6129 3.76616C86.903 4.49431 87.0425 5.27371 87.0229 6.05727ZM77.7316 6.05727C77.7316 8.08719 79.1839 9.62104 81.1126 9.62104C83.0414 9.62104 84.4969 8.08719 84.4969 6.05727C84.4969 4.02736 83.0446 2.4935 81.1061 2.4935C79.1676 2.4935 77.7316 4.02736 77.7316 6.05727V6.05727Z" fill="#FE6116"/>
<path d="M101.449 6.43937C101.449 9.75837 99.1224 11.9874 95.8034 11.9874C92.4844 11.9874 89.929 9.42876 89.929 6.04774C89.929 2.66673 92.455 0.104858 95.823 0.104858C98.1662 0.104858 100.425 1.345 101.002 3.11057L98.6753 4.14837C98.2641 3.1432 97.1088 2.48397 95.823 2.48397C93.8909 2.48397 92.4387 4.01783 92.4387 6.04774C92.4213 6.52041 92.5016 6.99159 92.6745 7.43183C92.8475 7.87206 93.1094 8.2719 93.4438 8.60636C93.7783 8.94081 94.1781 9.20269 94.6184 9.37564C95.0586 9.54859 95.5298 9.62889 96.0025 9.61152C97.7354 9.61152 98.7928 8.5215 98.8744 7.30094H95.6402V5.31671H101.384C101.429 5.68921 101.451 6.06415 101.449 6.43937V6.43937Z" fill="white"/>
<path d="M107.472 0.283447V11.8352H105.031V0.283447H107.472Z" fill="white"/>
<path d="M116.878 12C113.562 12 111.053 9.38918 111.053 6.06038C111.053 2.73158 113.562 0.117493 116.878 0.117493C119.221 0.117493 121.251 1.35763 121.813 3.1232L119.636 4.161C119.205 3.15584 118.184 2.4966 116.878 2.4966C114.92 2.4966 113.562 4.01415 113.562 6.06038C113.562 8.10661 114.914 9.62415 116.878 9.62415C118.265 9.62415 119.339 8.89965 119.701 7.76068L121.943 8.78216C121.385 10.6815 119.293 12 116.878 12Z" fill="white"/>
<path d="M126.882 2.68922L126.497 2.03659H126.311V2.68922H125.949V0.979309H126.601C126.742 0.979286 126.878 1.03467 126.979 1.13353C127.079 1.2324 127.137 1.36685 127.14 1.50795C127.144 1.60438 127.121 1.70007 127.073 1.78384C127.025 1.86762 126.954 1.93604 126.869 1.98111L127.316 2.68922H126.882ZM126.311 1.71027H126.572C126.6 1.71388 126.628 1.71147 126.655 1.70321C126.683 1.69494 126.708 1.681 126.729 1.66232C126.75 1.64364 126.767 1.62064 126.779 1.59487C126.79 1.56909 126.796 1.54113 126.796 1.51284C126.796 1.48455 126.79 1.45659 126.779 1.43082C126.767 1.40504 126.75 1.38205 126.729 1.36337C126.708 1.34469 126.683 1.33075 126.655 1.32248C126.628 1.31421 126.6 1.3118 126.572 1.31542H126.311V1.71027Z" fill="white"/>
<path d="M126.567 3.72657C126.198 3.72722 125.837 3.6184 125.53 3.41391C125.224 3.20942 124.984 2.91844 124.843 2.57784C124.701 2.23724 124.664 1.86232 124.736 1.50058C124.808 1.13883 124.985 0.806527 125.246 0.545745C125.507 0.284964 125.839 0.107436 126.201 0.0356443C126.563 -0.036147 126.938 0.00102826 127.278 0.14246C127.619 0.283892 127.91 0.52322 128.114 0.830135C128.319 1.13705 128.428 1.49775 128.427 1.86655C128.427 2.35986 128.231 2.83296 127.882 3.18178C127.533 3.5306 127.06 3.72657 126.567 3.72657V3.72657ZM126.567 0.404635C126.278 0.404635 125.995 0.490375 125.755 0.651012C125.514 0.811649 125.327 1.03997 125.216 1.3071C125.106 1.57423 125.077 1.86817 125.133 2.15175C125.189 2.43534 125.329 2.69582 125.533 2.90028C125.738 3.10473 125.998 3.24396 126.282 3.30037C126.565 3.35678 126.859 3.32783 127.126 3.21718C127.393 3.10653 127.622 2.91915 127.782 2.67874C127.943 2.43833 128.029 2.15569 128.029 1.86655C128.028 1.47909 127.874 1.10775 127.6 0.833771C127.326 0.559796 126.954 0.405497 126.567 0.404635" fill="white"/>
<g opacity="0.5">
<path d="M135.584 10.0879C136.03 10.0879 136.417 9.97721 136.746 9.75586C137.075 9.53125 137.329 9.21387 137.508 8.80371C137.69 8.39355 137.781 7.91016 137.781 7.35352V7.34375C137.781 6.78385 137.692 6.29883 137.513 5.88867C137.334 5.47852 137.08 5.16276 136.751 4.94141C136.422 4.7168 136.033 4.60449 135.584 4.60449C135.219 4.60449 134.891 4.68913 134.598 4.8584C134.308 5.02441 134.093 5.25065 133.953 5.53711H133.87V2.61719H132.811V10H133.87V9.16504H133.953C134.109 9.45475 134.327 9.68099 134.607 9.84375C134.887 10.0065 135.213 10.0879 135.584 10.0879ZM135.281 9.17969C134.988 9.17969 134.734 9.10645 134.52 8.95996C134.305 8.81348 134.14 8.60352 134.026 8.33008C133.912 8.05339 133.855 7.72786 133.855 7.35352V7.34375C133.855 6.96615 133.912 6.64062 134.026 6.36719C134.14 6.09375 134.305 5.88379 134.52 5.7373C134.734 5.58757 134.988 5.5127 135.281 5.5127C135.577 5.5127 135.831 5.58757 136.043 5.7373C136.255 5.88379 136.416 6.09375 136.526 6.36719C136.64 6.63737 136.697 6.96289 136.697 7.34375V7.35352C136.697 7.73112 136.64 8.05664 136.526 8.33008C136.416 8.60352 136.255 8.81348 136.043 8.95996C135.831 9.10645 135.577 9.17969 135.281 9.17969Z" fill="white"/>
<path d="M139.374 11.8652C139.735 11.8652 140.041 11.8148 140.291 11.7139C140.542 11.613 140.759 11.4404 140.941 11.1963C141.123 10.9554 141.289 10.6234 141.439 10.2002L143.412 4.69727H142.293L140.799 9.47754L141.126 8.93066H140.721L141.053 9.47754L139.554 4.69727H138.407L140.331 10.0049L140.252 10.2783C140.174 10.5452 140.059 10.7357 139.906 10.8496C139.753 10.9668 139.553 11.0254 139.305 11.0254C139.247 11.0254 139.185 11.0238 139.12 11.0205C139.058 11.0173 139.001 11.0124 138.949 11.0059V11.8408C139.017 11.8473 139.089 11.8522 139.164 11.8555C139.238 11.862 139.308 11.8652 139.374 11.8652Z" fill="white"/>
<path d="M147.377 10H148.471V6.87988H152.084V10H153.183V2.9541H152.084V5.93262H148.471V2.9541H147.377V10Z" fill="white"/>
<path d="M157.08 10.1025C157.422 10.1025 157.723 10.0586 157.983 9.9707C158.247 9.88281 158.472 9.76725 158.657 9.62402C158.846 9.48079 158.997 9.32292 159.111 9.15039C159.225 8.97461 159.305 8.79883 159.351 8.62305L159.36 8.5791H158.335L158.315 8.61816C158.276 8.70931 158.203 8.80208 158.096 8.89648C157.991 8.99089 157.856 9.07064 157.69 9.13574C157.528 9.19759 157.332 9.22852 157.104 9.22852C156.808 9.22852 156.551 9.16341 156.333 9.0332C156.118 8.90299 155.952 8.71419 155.835 8.4668C155.718 8.2194 155.659 7.92155 155.659 7.57324V7.14844C155.659 6.78385 155.718 6.47624 155.835 6.22559C155.955 5.97493 156.118 5.78613 156.323 5.65918C156.531 5.52897 156.767 5.46387 157.031 5.46387C157.295 5.46387 157.528 5.52572 157.729 5.64941C157.931 5.77311 158.089 5.96029 158.203 6.21094C158.32 6.45833 158.379 6.77083 158.379 7.14844V7.57324L158.887 6.87012H155.127V7.62695H159.414V7.25586C159.414 6.72201 159.318 6.25651 159.126 5.85938C158.934 5.45898 158.659 5.14811 158.301 4.92676C157.946 4.7054 157.521 4.59473 157.026 4.59473C156.535 4.59473 156.105 4.71029 155.737 4.94141C155.373 5.17253 155.089 5.49479 154.888 5.9082C154.689 6.32161 154.59 6.80501 154.59 7.3584V7.36328C154.59 7.92318 154.689 8.4082 154.888 8.81836C155.089 9.22852 155.376 9.5459 155.747 9.77051C156.118 9.99186 156.562 10.1025 157.08 10.1025Z" fill="white"/>
<path d="M160.743 10H161.802V2.61719H160.743V10Z" fill="white"/>
<path d="M163.399 11.7676H164.459V9.16016H164.542C164.636 9.35221 164.765 9.5166 164.928 9.65332C165.09 9.79004 165.278 9.89746 165.489 9.97559C165.701 10.0505 165.929 10.0879 166.173 10.0879C166.622 10.0879 167.011 9.97721 167.34 9.75586C167.669 9.53125 167.922 9.21549 168.101 8.80859C168.28 8.39844 168.37 7.91341 168.37 7.35352V7.34375C168.37 6.78711 168.279 6.30534 168.097 5.89844C167.918 5.48828 167.664 5.1709 167.335 4.94629C167.006 4.71842 166.619 4.60449 166.173 4.60449C165.925 4.60449 165.697 4.64193 165.489 4.7168C165.281 4.79167 165.095 4.89746 164.933 5.03418C164.773 5.1709 164.643 5.33691 164.542 5.53223H164.459V4.69727H163.399V11.7676ZM165.87 9.17969C165.577 9.17969 165.323 9.10645 165.108 8.95996C164.893 8.81022 164.729 8.59863 164.615 8.3252C164.501 8.05176 164.444 7.72786 164.444 7.35352V7.34375C164.444 6.96289 164.501 6.63737 164.615 6.36719C164.729 6.09375 164.893 5.88379 165.108 5.7373C165.323 5.58757 165.577 5.5127 165.87 5.5127C166.166 5.5127 166.42 5.58594 166.632 5.73242C166.843 5.87891 167.004 6.08887 167.115 6.3623C167.229 6.63574 167.286 6.96289 167.286 7.34375V7.35352C167.286 7.73112 167.229 8.05664 167.115 8.33008C167.004 8.60352 166.843 8.81348 166.632 8.95996C166.42 9.10645 166.166 9.17969 165.87 9.17969Z" fill="white"/>
<path d="M172.135 10.1709C172.682 10.1709 173.157 10.0814 173.561 9.90234C173.965 9.72331 174.275 9.47103 174.494 9.14551C174.715 8.81673 174.826 8.42773 174.826 7.97852V7.97363C174.826 7.4528 174.663 7.03613 174.337 6.72363C174.015 6.41113 173.484 6.17676 172.745 6.02051L171.974 5.84961C171.522 5.75195 171.194 5.61686 170.993 5.44434C170.794 5.26855 170.695 5.05046 170.695 4.79004V4.78516C170.695 4.5638 170.757 4.375 170.88 4.21875C171.007 4.0625 171.178 3.94368 171.393 3.8623C171.608 3.77767 171.852 3.73535 172.125 3.73535C172.409 3.7321 172.656 3.77441 172.868 3.8623C173.082 3.94694 173.253 4.06413 173.38 4.21387C173.51 4.36361 173.59 4.53451 173.619 4.72656L173.629 4.79004H174.699L174.694 4.72656C174.668 4.35872 174.546 4.02832 174.327 3.73535C174.113 3.44238 173.818 3.21126 173.444 3.04199C173.073 2.86947 172.638 2.7832 172.14 2.7832C171.642 2.7832 171.201 2.86947 170.817 3.04199C170.433 3.21452 170.132 3.4554 169.913 3.76465C169.699 4.07389 169.59 4.43197 169.586 4.83887V4.84375C169.586 5.36458 169.749 5.79264 170.075 6.12793C170.4 6.45996 170.919 6.70247 171.632 6.85547L172.404 7.0166C172.869 7.11751 173.204 7.25749 173.41 7.43652C173.615 7.61556 173.717 7.84017 173.717 8.11035V8.11523C173.717 8.33008 173.65 8.52051 173.517 8.68652C173.387 8.85254 173.206 8.98275 172.975 9.07715C172.744 9.17155 172.48 9.21875 172.184 9.21875C171.868 9.21875 171.587 9.1748 171.339 9.08691C171.095 8.99902 170.9 8.87695 170.753 8.7207C170.61 8.56445 170.527 8.38053 170.504 8.16895L170.499 8.11523H169.42L169.425 8.17871C169.458 8.57259 169.588 8.91927 169.816 9.21875C170.044 9.51823 170.355 9.7526 170.748 9.92188C171.142 10.0879 171.605 10.1709 172.135 10.1709Z" fill="white"/>
<path d="M176.681 11.8652C177.043 11.8652 177.349 11.8148 177.599 11.7139C177.85 11.613 178.067 11.4404 178.249 11.1963C178.431 10.9554 178.597 10.6234 178.747 10.2002L180.72 4.69727H179.601L178.107 9.47754L178.434 8.93066H178.029L178.361 9.47754L176.862 4.69727H175.715L177.639 10.0049L177.56 10.2783C177.482 10.5452 177.367 10.7357 177.214 10.8496C177.061 10.9668 176.861 11.0254 176.613 11.0254C176.555 11.0254 176.493 11.0238 176.428 11.0205C176.366 11.0173 176.309 11.0124 176.257 11.0059V11.8408C176.325 11.8473 176.397 11.8522 176.472 11.8555C176.546 11.862 176.616 11.8652 176.681 11.8652Z" fill="white"/>
<path d="M183.601 10.1025C184.024 10.1025 184.4 10.0342 184.729 9.89746C185.061 9.75749 185.323 9.5638 185.515 9.31641C185.707 9.06576 185.803 8.77767 185.803 8.45215V8.44238C185.803 8.05827 185.678 7.75228 185.427 7.52441C185.18 7.29655 184.802 7.1224 184.294 7.00195L183.45 6.81152C183.153 6.73991 182.94 6.65039 182.81 6.54297C182.68 6.43555 182.615 6.29883 182.615 6.13281V6.12305C182.615 5.97982 182.657 5.85612 182.742 5.75195C182.829 5.64453 182.948 5.56152 183.098 5.50293C183.248 5.44108 183.419 5.41016 183.611 5.41016C183.91 5.41016 184.151 5.47201 184.333 5.5957C184.519 5.7194 184.636 5.87402 184.685 6.05957V6.06934H185.701V6.06445C185.668 5.77474 185.564 5.52083 185.388 5.30273C185.212 5.08138 184.973 4.90885 184.67 4.78516C184.371 4.6582 184.019 4.59473 183.616 4.59473C183.215 4.59473 182.859 4.66309 182.546 4.7998C182.237 4.93327 181.994 5.12044 181.819 5.36133C181.643 5.59896 181.555 5.8724 181.555 6.18164V6.18652C181.555 6.57389 181.674 6.88639 181.911 7.12402C182.152 7.3584 182.522 7.53255 183.02 7.64648L183.869 7.8418C184.175 7.91341 184.395 8.00618 184.529 8.12012C184.662 8.23405 184.729 8.37402 184.729 8.54004V8.5498C184.729 8.69303 184.682 8.81999 184.587 8.93066C184.493 9.04134 184.363 9.1276 184.197 9.18945C184.034 9.2513 183.843 9.28223 183.625 9.28223C183.31 9.28223 183.056 9.22038 182.864 9.09668C182.672 8.97298 182.541 8.81185 182.473 8.61328V8.60352H181.409V8.61328C181.441 8.90951 181.55 9.16992 181.736 9.39453C181.921 9.61589 182.172 9.79004 182.488 9.91699C182.803 10.0407 183.174 10.1025 183.601 10.1025Z" fill="white"/>
<path d="M189.046 10.0342C189.15 10.0342 189.251 10.0277 189.348 10.0146C189.446 10.0049 189.537 9.99349 189.622 9.98047V9.13086C189.547 9.13737 189.48 9.14225 189.422 9.14551C189.366 9.14876 189.3 9.15039 189.221 9.15039C188.958 9.15039 188.769 9.08854 188.655 8.96484C188.541 8.83789 188.484 8.63118 188.484 8.34473V5.53223H189.622V4.69727H188.484V3.35938H187.4V4.69727H186.57V5.53223H187.4V8.60352C187.4 9.11133 187.529 9.47754 187.786 9.70215C188.046 9.9235 188.466 10.0342 189.046 10.0342Z" fill="white"/>
<path d="M193.05 10.1025C193.392 10.1025 193.693 10.0586 193.953 9.9707C194.217 9.88281 194.442 9.76725 194.627 9.62402C194.816 9.48079 194.967 9.32292 195.081 9.15039C195.195 8.97461 195.275 8.79883 195.321 8.62305L195.33 8.5791H194.305L194.285 8.61816C194.246 8.70931 194.173 8.80208 194.066 8.89648C193.962 8.99089 193.826 9.07064 193.66 9.13574C193.498 9.19759 193.302 9.22852 193.074 9.22852C192.778 9.22852 192.521 9.16341 192.303 9.0332C192.088 8.90299 191.922 8.71419 191.805 8.4668C191.688 8.2194 191.629 7.92155 191.629 7.57324V7.14844C191.629 6.78385 191.688 6.47624 191.805 6.22559C191.925 5.97493 192.088 5.78613 192.293 5.65918C192.502 5.52897 192.738 5.46387 193.001 5.46387C193.265 5.46387 193.498 5.52572 193.699 5.64941C193.901 5.77311 194.059 5.96029 194.173 6.21094C194.29 6.45833 194.349 6.77083 194.349 7.14844V7.57324L194.857 6.87012H191.097V7.62695H195.384V7.25586C195.384 6.72201 195.288 6.25651 195.096 5.85938C194.904 5.45898 194.629 5.14811 194.271 4.92676C193.916 4.7054 193.491 4.59473 192.996 4.59473C192.505 4.59473 192.075 4.71029 191.707 4.94141C191.343 5.17253 191.06 5.49479 190.858 5.9082C190.659 6.32161 190.56 6.80501 190.56 7.3584V7.36328C190.56 7.92318 190.659 8.4082 190.858 8.81836C191.06 9.22852 191.346 9.5459 191.717 9.77051C192.088 9.99186 192.533 10.1025 193.05 10.1025Z" fill="white"/>
<path d="M196.664 10H197.723V6.74316C197.723 6.51204 197.772 6.30371 197.87 6.11816C197.968 5.92936 198.099 5.77962 198.265 5.66895C198.435 5.55827 198.625 5.50293 198.837 5.50293C199.149 5.50293 199.397 5.59245 199.579 5.77148C199.764 5.94727 199.857 6.18652 199.857 6.48926V10H200.917V6.64551C200.917 6.43066 200.962 6.23861 201.053 6.06934C201.148 5.89681 201.278 5.76009 201.444 5.65918C201.613 5.55501 201.81 5.50293 202.035 5.50293C202.38 5.50293 202.636 5.59408 202.802 5.77637C202.971 5.95866 203.055 6.2321 203.055 6.59668V10H204.115V6.34277C204.115 5.97493 204.048 5.66081 203.915 5.40039C203.781 5.13997 203.588 4.94141 203.334 4.80469C203.08 4.66471 202.774 4.59473 202.416 4.59473C202.175 4.59473 201.947 4.63379 201.732 4.71191C201.521 4.79004 201.335 4.90072 201.176 5.04395C201.016 5.18392 200.892 5.34993 200.804 5.54199H200.721C200.643 5.34993 200.534 5.18392 200.394 5.04395C200.258 4.90072 200.093 4.79004 199.901 4.71191C199.709 4.63379 199.493 4.59473 199.252 4.59473C198.903 4.59473 198.604 4.67448 198.353 4.83398C198.106 4.99349 197.924 5.21973 197.806 5.5127H197.723V4.69727H196.664V10Z" fill="white"/>
<path d="M207.548 10.1025C207.971 10.1025 208.347 10.0342 208.676 9.89746C209.008 9.75749 209.27 9.5638 209.462 9.31641C209.654 9.06576 209.75 8.77767 209.75 8.45215V8.44238C209.75 8.05827 209.625 7.75228 209.374 7.52441C209.127 7.29655 208.749 7.1224 208.241 7.00195L207.397 6.81152C207.1 6.73991 206.887 6.65039 206.757 6.54297C206.627 6.43555 206.562 6.29883 206.562 6.13281V6.12305C206.562 5.97982 206.604 5.85612 206.689 5.75195C206.777 5.64453 206.895 5.56152 207.045 5.50293C207.195 5.44108 207.366 5.41016 207.558 5.41016C207.857 5.41016 208.098 5.47201 208.281 5.5957C208.466 5.7194 208.583 5.87402 208.632 6.05957V6.06934H209.648V6.06445C209.615 5.77474 209.511 5.52083 209.335 5.30273C209.159 5.08138 208.92 4.90885 208.617 4.78516C208.318 4.6582 207.966 4.59473 207.563 4.59473C207.162 4.59473 206.806 4.66309 206.493 4.7998C206.184 4.93327 205.942 5.12044 205.766 5.36133C205.59 5.59896 205.502 5.8724 205.502 6.18164V6.18652C205.502 6.57389 205.621 6.88639 205.859 7.12402C206.1 7.3584 206.469 7.53255 206.967 7.64648L207.817 7.8418C208.123 7.91341 208.342 8.00618 208.476 8.12012C208.609 8.23405 208.676 8.37402 208.676 8.54004V8.5498C208.676 8.69303 208.629 8.81999 208.534 8.93066C208.44 9.04134 208.31 9.1276 208.144 9.18945C207.981 9.2513 207.791 9.28223 207.573 9.28223C207.257 9.28223 207.003 9.22038 206.811 9.09668C206.619 8.97298 206.489 8.81185 206.42 8.61328V8.60352H205.356V8.61328C205.388 8.90951 205.497 9.16992 205.683 9.39453C205.868 9.61589 206.119 9.79004 206.435 9.91699C206.751 10.0407 207.122 10.1025 207.548 10.1025Z" fill="white"/>
</g>
</svg>
